<?xml version="1.0" standalone="no"?>
<!DOCTYPE svg PUBLIC "-//W3C//DTD SVG 20010904//EN"
 "http://www.w3.org/TR/2001/REC-SVG-20010904/DTD/svg10.dtd">
<svg version="1.0" xmlns="http://www.w3.org/2000/svg"
 width="112.000000pt" height="114.000000pt" viewBox="0 0 112.000000 114.000000"
 preserveAspectRatio="xMidYMid meet">

<g transform="translate(0.000000,114.000000) scale(0.100000,-0.100000)"
fill="#000000" stroke="none">
<path d="M0 570 l0 -570 560 0 560 0 0 570 0 570 -560 0 -560 0 0 -570z m573
178 c35 -84 70 -177 77 -206 17 -75 30 -74 30 2 0 60 36 345 44 353 2 2 39 3
82 1 l79 -3 -22 -155 c-12 -85 -25 -177 -28 -205 -7 -66 -11 -96 -25 -185 -20
-133 -9 -120 -105 -120 -73 0 -86 3 -94 19 -17 31 -82 190 -117 286 l-33 90 0
-63 c-1 -53 -17 -185 -36 -299 l-6 -33 -79 0 c-70 0 -80 2 -80 18 0 9 11 96
24 192 14 96 27 193 29 215 5 39 21 147 32 213 l6 32 79 0 78 0 65 -152z"/>
</g>
</svg>
